<svg width="121" height="25" viewBox="0 0 121 25" fill="none" xmlns="http://www.w3.org/2000/svg">
<path d="M16.0969 24.2803L12.4009 20.5843C11.4968 20.8324 10.575 20.9565 9.63545 20.9565C7.91594 20.9565 6.3471 20.5577 4.92894 19.7599C3.51078 18.9445 2.38512 17.8188 1.55195 16.383C0.736506 14.9293 0.328785 13.2985 0.328785 11.4903C0.328785 9.68215 0.736506 8.06014 1.55195 6.62425C2.38512 5.17064 3.51078 4.04497 4.92894 3.24726C6.3471 2.43182 7.91594 2.0241 9.63545 2.0241C11.3727 2.0241 12.9504 2.43182 14.3686 3.24726C15.7867 4.04497 16.9035 5.16177 17.719 6.59766C18.5344 8.03354 18.9421 9.66443 18.9421 11.4903C18.9421 13.263 18.5521 14.8584 17.7721 16.2766C16.9922 17.6948 15.9197 18.8116 14.5547 19.627L19.2346 24.2803H16.0969ZM2.8017 11.4903C2.8017 12.9616 3.0942 14.2557 3.67919 15.3725C4.2819 16.4893 5.09734 17.3491 6.12551 17.9518C7.1714 18.5545 8.34138 18.8559 9.63545 18.8559C10.9295 18.8559 12.0906 18.5545 13.1188 17.9518C14.1647 17.3491 14.9801 16.4893 15.5651 15.3725C16.1678 14.2557 16.4692 12.9616 16.4692 11.4903C16.4692 10.0012 16.1678 8.70717 15.5651 7.6081C14.9801 6.4913 14.1736 5.63154 13.1454 5.02882C12.1172 4.4261 10.9473 4.12474 9.63545 4.12474C8.32366 4.12474 7.15368 4.4261 6.12551 5.02882C5.09734 5.63154 4.2819 6.4913 3.67919 7.6081C3.0942 8.70717 2.8017 10.0012 2.8017 11.4903ZM35.1114 6.1988V20.7704H32.6917V18.6166C32.2308 19.3611 31.5837 19.9461 30.7506 20.3715C29.9351 20.7792 29.0311 20.9831 28.0384 20.9831C26.9038 20.9831 25.8845 20.7527 24.9804 20.2918C24.0764 19.8131 23.3584 19.104 22.8266 18.1645C22.3125 17.225 22.0555 16.0816 22.0555 14.7343V6.1988H24.4486V14.4153C24.4486 15.8511 24.812 16.9591 25.5388 17.7391C26.2657 18.5013 27.2584 18.8825 28.517 18.8825C29.811 18.8825 30.8304 18.4836 31.5749 17.6859C32.3194 16.8882 32.6917 15.7271 32.6917 14.2025V6.1988H35.1114ZM40.4468 3.83225C39.9859 3.83225 39.5959 3.67271 39.2768 3.35362C38.9577 3.03453 38.7981 2.64454 38.7981 2.18364C38.7981 1.72274 38.9577 1.33274 39.2768 1.01366C39.5959 0.694572 39.9859 0.535029 40.4468 0.535029C40.8899 0.535029 41.2622 0.694572 41.5636 1.01366C41.8826 1.33274 42.0422 1.72274 42.0422 2.18364C42.0422 2.64454 41.8826 3.03453 41.5636 3.35362C41.2622 3.67271 40.8899 3.83225 40.4468 3.83225ZM41.6167 6.1988V20.7704H39.197V6.1988H41.6167ZM47.5489 18.7761H54.7018V20.7704H44.7835V18.7761L51.8566 8.1665H44.8367V6.1988H54.6486V8.1665L47.5489 18.7761Z" fill="#3B3B3B"/>
<path d="M71.8813 7.6081C71.3672 6.52675 70.6227 5.69358 69.6477 5.10859C68.6727 4.50587 67.5382 4.20452 66.2441 4.20452C64.95 4.20452 63.78 4.50587 62.7342 5.10859C61.706 5.69358 60.8905 6.54448 60.2878 7.66128C59.7028 8.76035 59.4103 10.0367 59.4103 11.4903C59.4103 12.9439 59.7028 14.2203 60.2878 15.3193C60.8905 16.4184 61.706 17.2693 62.7342 17.872C63.78 18.457 64.95 18.7495 66.2441 18.7495C68.0522 18.7495 69.5413 18.2088 70.7113 17.1275C71.8813 16.0461 72.5638 14.5837 72.7588 12.7401H65.3666V10.7724H75.338V12.6337C75.1962 14.1582 74.7176 15.5587 73.9022 16.835C73.0867 18.0936 72.0142 19.0952 70.6847 19.8397C69.3552 20.5665 67.875 20.9299 66.2441 20.9299C64.5246 20.9299 62.9557 20.5311 61.5376 19.7334C60.1194 18.9179 58.9938 17.7923 58.1606 16.3564C57.3451 14.9205 56.9374 13.2985 56.9374 11.4903C56.9374 9.68215 57.3451 8.06014 58.1606 6.62425C58.9938 5.17064 60.1194 4.04497 61.5376 3.24726C62.9557 2.43182 64.5246 2.0241 66.2441 2.0241C68.2118 2.0241 69.949 2.51159 71.4558 3.48657C72.9804 4.46156 74.0883 5.8354 74.7796 7.6081H71.8813ZM80.9571 8.56535C81.3826 7.73219 81.9853 7.08515 82.7653 6.62425C83.563 6.16335 84.5291 5.9329 85.6637 5.9329V8.4324H85.0255C82.3133 8.4324 80.9571 9.90374 80.9571 12.8464V20.7704H78.5374V6.1988H80.9571V8.56535ZM87.5528 13.4314C87.5528 11.9423 87.8542 10.6394 88.4569 9.52261C89.0596 8.38808 89.8839 7.5106 90.9298 6.89015C91.9934 6.26971 93.1723 5.95949 94.4664 5.95949C95.7427 5.95949 96.8506 6.23426 97.7902 6.78379C98.7297 7.33333 99.4299 8.02468 99.8908 8.85785V6.1988H102.337V20.7704H99.8908V18.0582C99.4122 18.9091 98.6942 19.6181 97.737 20.1854C96.7975 20.7349 95.6984 21.0097 94.4398 21.0097C93.1457 21.0097 91.9757 20.6906 90.9298 20.0524C89.8839 19.4143 89.0596 18.5191 88.4569 17.3668C87.8542 16.2145 87.5528 14.9028 87.5528 13.4314ZM99.8908 13.458C99.8908 12.3589 99.6692 11.4017 99.2261 10.5862C98.7829 9.77079 98.1802 9.15035 97.4179 8.7249C96.6734 8.28172 95.8491 8.06014 94.945 8.06014C94.0409 8.06014 93.2166 8.27286 92.4721 8.69831C91.7275 9.12375 91.1337 9.7442 90.6905 10.5596C90.2473 11.3751 90.0257 12.3323 90.0257 13.4314C90.0257 14.5482 90.2473 15.5232 90.6905 16.3564C91.1337 17.1718 91.7275 17.8011 92.4721 18.2443C93.2166 18.6697 94.0409 18.8825 94.945 18.8825C95.8491 18.8825 96.6734 18.6697 97.4179 18.2443C98.1802 17.8011 98.7829 17.1718 99.2261 16.3564C99.6692 15.5232 99.8908 14.5571 99.8908 13.458ZM105.522 13.4314C105.522 11.9423 105.824 10.6394 106.426 9.52261C107.029 8.38808 107.853 7.5106 108.899 6.89015C109.963 6.26971 111.151 5.95949 112.462 5.95949C113.597 5.95949 114.652 6.22539 115.627 6.7572C116.602 7.27128 117.346 7.95377 117.86 8.80467V1.09343H120.306V20.7704H117.86V18.0316C117.382 18.9002 116.672 19.6181 115.733 20.1854C114.793 20.7349 113.694 21.0097 112.436 21.0097C111.142 21.0097 109.963 20.6906 108.899 20.0524C107.853 19.4143 107.029 18.5191 106.426 17.3668C105.824 16.2145 105.522 14.9028 105.522 13.4314ZM117.86 13.458C117.86 12.3589 117.639 11.4017 117.195 10.5862C116.752 9.77079 116.15 9.15035 115.387 8.7249C114.643 8.28172 113.818 8.06014 112.914 8.06014C112.01 8.06014 111.186 8.27286 110.441 8.69831C109.697 9.12375 109.103 9.7442 108.66 10.5596C108.217 11.3751 107.995 12.3323 107.995 13.4314C107.995 14.5482 108.217 15.5232 108.66 16.3564C109.103 17.1718 109.697 17.8011 110.441 18.2443C111.186 18.6697 112.01 18.8825 112.914 18.8825C113.818 18.8825 114.643 18.6697 115.387 18.2443C116.15 17.8011 116.752 17.1718 117.195 16.3564C117.639 15.5232 117.86 14.5571 117.86 13.458Z" fill="#FCC822"/>
</svg>
